<?xml version="1.0" standalone="no"?>
<!DOCTYPE svg PUBLIC "-//W3C//DTD SVG 20010904//EN"
 "http://www.w3.org/TR/2001/REC-SVG-20010904/DTD/svg10.dtd">
<svg version="1.0" xmlns="http://www.w3.org/2000/svg"
 width="512.000000pt" height="512.000000pt" viewBox="0 0 512.000000 512.000000"
 preserveAspectRatio="xMidYMid meet">
<metadata>
Created by potrace 1.16, written by Peter Selinger 2001-2019
</metadata>
<g transform="translate(0.000000,512.000000) scale(0.100000,-0.100000)"
fill="#000000" stroke="none">
<path d="M2320 5113 c-611 -62 -1194 -351 -1622 -802 l-98 -103 0 104 c0 84
-4 108 -19 132 -31 46 -69 66 -131 66 -62 0 -100 -20 -131 -66 -18 -27 -19
-53 -19 -400 0 -368 0 -371 22 -404 29 -42 91 -75 138 -72 19 1 171 10 337 21
335 21 350 25 388 94 23 43 17 132 -11 169 -42 58 -61 62 -246 54 -92 -3 -168
-4 -168 0 0 26 259 299 372 392 329 268 754 449 1178 502 126 15 400 12 542
-6 481 -62 945 -292 1297 -645 176 -176 310 -360 424 -586 147 -290 217 -559
237 -899 9 -169 19 -199 76 -235 42 -26 129 -26 168 0 57 38 66 64 66 196 0
340 -94 726 -260 1060 -385 782 -1131 1313 -1990 1420 -113 14 -447 19 -550 8z"/>
<path d="M3090 4199 c-25 -10 -1483 -1458 -1542 -1532 -52 -65 -51 -162 4
-216 26 -25 92 -51 409 -156 l378 -126 -265 -532 -266 -532 4 -57 c5 -62 27
-96 80 -124 32 -17 95 -18 135 -3 26 10 1480 1451 1545 1532 52 65 51 162 -4
216 -26 25 -92 51 -409 156 l-378 126 265 532 266 532 -4 57 c-5 62 -27 96
-80 124 -31 16 -101 17 -138 3z"/>
<path d="M66 2691 c-57 -38 -66 -64 -66 -196 0 -340 94 -726 260 -1060 387
-786 1133 -1315 2002 -1421 183 -22 533 -15 701 15 570 101 1068 368 1460 780
l97 103 0 -104 c0 -84 4 -108 19 -132 31 -46 69 -66 131 -66 62 0 100 20 131
66 18 27 19 53 19 400 0 368 0 371 -22 404 -13 18 -41 42 -62 53 l-39 21 -338
-21 c-305 -19 -341 -23 -372 -42 -51 -31 -71 -76 -65 -146 4 -53 9 -62 48 -98
l42 -40 174 7 c96 3 174 3 174 0 0 -26 -259 -299 -372 -392 -329 -268 -754
-449 -1178 -502 -126 -15 -400 -12 -542 6 -481 62 -945 292 -1297 645 -176
176 -310 360 -424 586 -147 290 -217 559 -237 900 -9 168 -20 201 -78 236 -41
24 -128 23 -166 -2z"/>
</g>
</svg>
