<?xml version="1.0" standalone="no"?>
<!DOCTYPE svg PUBLIC "-//W3C//DTD SVG 20010904//EN"
 "http://www.w3.org/TR/2001/REC-SVG-20010904/DTD/svg10.dtd">
<svg version="1.0" xmlns="http://www.w3.org/2000/svg"
 width="512.000000pt" height="512.000000pt" viewBox="0 0 512.000000 512.000000"
 preserveAspectRatio="xMidYMid meet">
<metadata>
Created by potrace 1.16, written by Peter Selinger 2001-2019
</metadata>
<g transform="translate(0.000000,512.000000) scale(0.100000,-0.100000)"
fill="#000000" stroke="none">
<path d="M2320 5114 c-14 -2 -65 -9 -115 -15 -518 -62 -1033 -314 -1429 -699
-398 -387 -646 -855 -743 -1400 -34 -195 -43 -547 -19 -747 24 -197 55 -333
82 -360 31 -31 78 -30 109 2 30 29 31 49 5 157 -41 173 -53 316 -47 568 4 171
11 264 26 341 97 528 328 963 704 1325 360 348 778 560 1272 645 154 27 487
37 648 19 396 -43 754 -173 1082 -393 148 -99 222 -162 383 -323 123 -124 158
-154 180 -154 33 0 51 12 165 108 l87 73 0 -409 c0 -385 -1 -410 -17 -406 -10
2 -189 33 -398 70 -209 36 -381 66 -383 68 -1 2 37 36 85 77 128 107 133 113
133 153 0 29 -11 48 -64 108 -195 223 -500 430 -798 542 -225 84 -441 120
-708 120 -102 0 -228 -6 -280 -13 -667 -94 -1236 -504 -1539 -1109 -238 -475
-276 -1050 -103 -1557 31 -93 36 -115 23 -111 -9 3 -75 15 -148 27 l-132 22
-47 -24 c-87 -45 -84 -27 -84 -559 0 -446 1 -466 20 -498 28 -45 76 -72 130
-72 54 0 85 15 159 78 31 26 64 54 74 61 16 13 30 2 140 -105 67 -66 160 -149
207 -186 382 -296 839 -479 1318 -529 165 -17 524 -7 678 20 380 65 700 192
1013 401 156 105 171 119 171 169 0 31 -6 44 -26 60 -15 12 -37 21 -49 21 -12
0 -71 -34 -131 -76 -431 -302 -877 -444 -1396 -444 -397 0 -738 82 -1095 264
-247 126 -435 268 -650 490 -103 105 -127 126 -152 126 -29 0 -55 -19 -217
-153 l-34 -29 0 406 c0 318 3 406 13 406 6 0 188 -30 403 -67 l390 -67 -100
-84 c-122 -102 -126 -107 -126 -149 0 -75 273 -331 503 -472 227 -139 471
-229 752 -278 140 -24 490 -24 630 0 585 102 1058 406 1377 887 159 238 263
505 315 805 24 140 24 490 0 630 -21 120 -67 295 -101 386 l-25 66 148 -26
148 -25 51 25 52 26 21 -70 c34 -114 68 -274 84 -395 29 -221 16 -559 -30
-785 -88 -423 -299 -833 -594 -1149 -68 -74 -81 -93 -81 -122 0 -43 26 -74 67
-82 29 -6 38 -1 99 57 215 206 428 543 554 874 120 316 166 603 157 977 -8
362 -70 647 -211 968 l-36 81 0 322 c0 304 -1 324 -20 355 -27 44 -76 72 -128
72 -54 0 -81 -14 -171 -89 -40 -34 -76 -61 -80 -61 -3 0 -49 43 -101 96 -407
411 -944 667 -1535 734 -83 9 -458 12 -515 4z m428 -695 c423 -46 794 -218
1105 -511 42 -40 77 -77 77 -83 -1 -5 -36 -39 -80 -75 -94 -78 -112 -105 -112
-171 1 -60 28 -108 74 -133 18 -9 123 -32 232 -51 110 -19 203 -38 207 -42 12
-13 79 -189 105 -276 39 -131 65 -291 71 -447 30 -743 -395 -1440 -1072 -1761
-431 -204 -932 -234 -1383 -83 -264 88 -479 218 -704 424 l-88 81 89 75 c49
42 95 89 102 106 31 75 1 171 -64 201 -17 9 -115 30 -217 47 -102 17 -194 35
-206 40 -26 10 -94 180 -134 337 -245 947 290 1925 1223 2237 244 82 525 113
775 85z"/>
<path d="M2492 4088 c-57 -27 -187 -151 -290 -275 -337 -403 -583 -865 -638
-1198 -33 -202 -3 -429 78 -595 53 -108 186 -247 292 -305 135 -75 295 -122
479 -140 l67 -7 0 -234 0 -235 25 -24 c32 -33 78 -33 110 0 l25 24 0 453 0
453 285 285 c267 267 285 287 285 321 0 46 -33 79 -80 79 -31 0 -55 -21 -262
-227 l-228 -227 0 284 0 284 170 171 c145 147 170 176 170 202 0 47 -34 83
-78 83 -33 0 -47 -10 -149 -112 l-113 -113 0 298 0 298 -25 24 c-15 16 -36 25
-55 25 -19 0 -40 -9 -55 -25 l-25 -24 0 -298 0 -298 -113 113 c-97 97 -117
112 -145 112 -38 0 -82 -37 -82 -70 0 -39 29 -75 184 -230 l156 -155 0 -285 0
-284 -228 227 c-211 210 -231 227 -263 227 -46 0 -79 -34 -79 -80 0 -31 24
-58 285 -320 l285 -285 0 -138 0 -138 -57 6 c-158 18 -302 60 -401 116 -88 50
-192 160 -235 249 -49 101 -67 174 -74 305 -4 89 -1 130 17 215 63 305 285
713 588 1078 87 105 224 242 243 242 18 0 164 -146 252 -254 274 -330 490
-715 569 -1014 30 -115 32 -341 5 -441 -67 -238 -232 -392 -495 -462 -70 -19
-86 -27 -98 -50 -8 -16 -14 -37 -14 -49 0 -30 44 -70 77 -70 93 0 335 103 433
184 120 99 208 240 252 401 18 67 22 108 22 250 1 155 -1 180 -27 276 -36 138
-92 281 -172 437 -233 457 -656 962 -806 962 -13 0 -44 -10 -67 -22z"/>
</g>
</svg>
