<?xml version="1.0" standalone="no"?>
<!DOCTYPE svg PUBLIC "-//W3C//DTD SVG 20010904//EN"
 "http://www.w3.org/TR/2001/REC-SVG-20010904/DTD/svg10.dtd">
<svg version="1.0" xmlns="http://www.w3.org/2000/svg"
 width="512.000000pt" height="512.000000pt" viewBox="0 0 512.000000 512.000000"
 preserveAspectRatio="xMidYMid meet">
<metadata>
Created by potrace 1.16, written by Peter Selinger 2001-2019
</metadata>
<g transform="translate(0.000000,512.000000) scale(0.100000,-0.100000)"
fill="#000000" stroke="none">
<path d="M4072 4690 c-229 -60 -413 -235 -489 -465 -24 -71 -27 -96 -27 -220
0 -127 3 -147 28 -220 76 -220 236 -380 453 -453 69 -23 94 -26 218 -26 128 0
147 2 220 28 302 105 485 358 486 671 0 126 -20 215 -73 325 -55 114 -186 247
-298 303 -155 77 -357 99 -518 57z m360 -173 c219 -79 368 -289 368 -515 -1
-141 -56 -269 -165 -377 -110 -109 -227 -158 -380 -158 -469 2 -717 554 -403
898 83 91 197 155 318 179 59 11 196 -3 262 -27z"/>
<path d="M4190 4422 c0 -47 -1 -50 -40 -67 -106 -48 -144 -207 -74 -308 23
-33 49 -52 129 -92 105 -52 133 -83 120 -126 -10 -29 -64 -59 -107 -59 -20 0
-68 11 -105 25 -37 13 -69 22 -72 20 -9 -9 -21 -129 -14 -135 5 -4 45 -15 91
-25 l82 -18 0 -44 0 -43 65 0 65 0 0 48 c0 48 1 49 41 67 47 22 82 63 104 124
18 51 19 73 4 124 -16 60 -67 106 -170 157 -109 52 -131 78 -110 128 19 46 63
57 141 37 34 -9 65 -13 69 -10 3 4 6 34 6 68 l0 62 -50 10 -50 11 -3 47 -3 47
-60 0 -59 0 0 -48z"/>
<path d="M3823 3240 c-12 -5 -197 -149 -411 -319 l-390 -310 -503 209 c-294
123 -516 210 -534 210 -26 0 -137 -75 -586 -396 -305 -217 -559 -405 -566
-417 -18 -33 -16 -61 8 -92 19 -23 28 -26 63 -23 36 3 111 53 566 378 288 206
529 374 535 372 5 -2 238 -97 516 -213 496 -205 508 -209 543 -197 44 16 846
651 864 685 35 65 -36 141 -105 113z"/>
<path d="M3841 2854 c-21 -27 -21 -29 -21 -1155 l0 -1129 -125 0 -125 0 0 745
0 746 -25 24 -24 25 -391 0 -391 0 -24 -25 -25 -24 0 -746 0 -745 -125 0 -125
0 0 795 c0 569 -3 801 -11 819 -21 45 -41 47 -442 44 l-376 -3 -23 -23 -23
-23 -3 -804 -2 -805 -125 0 -125 0 0 580 c0 567 0 580 -20 600 -19 19 -33 20
-411 20 -235 0 -398 -4 -409 -10 -38 -20 -40 -56 -40 -631 l0 -559 -189 0
c-175 0 -190 -1 -215 -21 -33 -26 -37 -88 -6 -119 20 -20 33 -20 2540 -20
2507 0 2520 0 2540 20 14 14 20 33 20 64 0 73 -11 76 -237 76 l-193 0 0 1135
c0 1122 0 1135 -20 1155 -19 19 -33 20 -414 20 l-395 0 -20 -26z m689 -1209
l0 -1075 -275 0 -275 0 0 1075 0 1075 275 0 275 0 0 -1075z m-2260 -330 l0
-745 -270 0 -270 0 0 745 0 745 270 0 270 0 0 -745z m1130 -55 l0 -690 -275 0
-275 0 0 690 0 690 275 0 275 0 0 -690z m-2260 -170 l0 -520 -270 0 -270 0 0
520 0 520 270 0 270 0 0 -520z"/>
</g>
</svg>
