<?xml version="1.0" encoding="utf-8" ?><svg xmlns="http://www.w3.org/2000/svg" xmlns:xlink="http://www.w3.org/1999/xlink" width="512" height="512" viewBox="0 0 512 512"><path fill="#C3C3C3" d="M242.895 208.093C243.549 208.057 244.204 208.029 244.859 208.011C249.673 207.884 268.032 207.677 271.63 208.616C274.177 209.267 276.507 210.577 278.388 212.413C282.559 216.51 282.934 221.193 282.94 226.683C285.994 228.008 288.966 229.514 291.84 231.195C293.809 232.366 295.88 233.839 297.908 234.817C303.243 232.232 306.141 230.021 312.588 231.392C317.381 232.411 321.194 235.862 323.449 240.092C325.848 244.592 333.866 256.212 335.194 260.354C336.074 263.048 336.18 265.935 335.5 268.687C333.981 274.892 329.81 277.054 324.853 280.08C325.106 285.296 325.453 290.745 324.611 295.905C329.359 298.503 333.49 300.793 335.226 306.328C336.566 310.521 336.015 314.826 333.802 318.601C330.325 324.566 326.689 330.428 323.112 336.335C320.787 340.176 317.75 343.2 313.337 344.474C307.182 346.253 302.676 343.729 297.42 340.929C291.795 344.893 289.192 346.366 283.054 349.319C282.763 354.02 282.721 358.067 279.723 361.992C276.845 365.76 273.494 367.306 268.956 367.967C268.074 368.011 267.192 368.042 266.309 368.061C261.211 368.159 244.457 368.481 240.51 367.468C237.926 366.818 235.558 365.501 233.643 363.649C229.272 359.374 229.153 354.901 229.084 349.307C224.619 347.61 217.267 342.834 214.125 341.499C208.695 343.352 205.75 346.177 199.605 344.711C189.649 342.335 187.049 332.234 181.781 324.694C180.208 321.602 177.285 318.249 176.551 314.826C174.278 304.214 180.086 300.303 187.238 295.899C186.793 290.637 186.81 285.347 187.29 280.089C182.559 277.424 178.91 275.49 176.885 270.103C175.591 266.659 175.878 261.328 177.753 258.297C180.75 253.454 188.426 239.23 191.773 235.696C193.381 233.972 195.385 232.665 197.611 231.888C204.468 229.536 208.833 232.168 214.712 235.098C218.434 231.847 224.407 228.519 229.008 226.822C229.443 216.954 231.668 209.719 242.895 208.093ZM203.095 247.198C199.394 252.934 195.981 258.846 192.437 264.682C204.741 270.601 203.431 276.732 202.931 288.631C202.809 291.511 203.552 294.941 203.268 297.896C202.784 304.965 198.283 308.421 192.597 311.356C194.881 315.264 200.58 325.28 203.117 328.604C206.388 327.109 208.122 325.814 211.844 325.144C219.578 323.752 223.089 328.361 228.916 331.367C239.461 336.807 245.73 338.062 245.085 351.936C252.23 351.98 259.715 352.105 266.848 351.971C266.745 338.342 271.868 336.695 282.737 331.532C285.807 330.073 288.627 327.372 292.146 325.989C293.929 325.291 295.83 324.942 297.745 324.962C302.099 325.004 305.337 326.785 309.048 328.842C312.23 322.977 316.233 317.16 319.488 311.351C313.75 308.516 309.642 305.558 308.829 298.534C308.404 294.858 309.375 290.581 309.072 287.138C308.088 275.947 308.11 270.13 319.38 264.706C317.085 260.469 311.536 251.156 308.792 247.219C296.978 254.265 292.801 250.894 282.323 244.269C279.407 242.426 275.791 241.518 272.738 239.278C271.139 238.123 269.796 236.652 268.79 234.956C266.757 231.489 266.774 228.071 266.823 224.193C262.665 224.128 258.507 224.106 254.349 224.129C251.879 224.151 247.566 224.331 245.253 224.038C244.935 229.949 245.007 233.838 240.319 238.188C236.776 241.476 232.771 242.156 229.14 244.505C218.889 251.136 214.571 254.053 203.095 247.198Z"/><path fill="#C3C3C3" d="M253.428 256.105C271.026 254.699 286.437 267.811 287.87 285.406C289.302 303.002 276.214 318.433 258.621 319.893C240.99 321.355 225.518 308.232 224.082 290.599C222.647 272.966 235.792 257.514 253.428 256.105ZM258.127 303.775C266.877 302.576 272.979 294.485 271.729 285.742C270.479 276.999 262.353 270.943 253.617 272.244C244.953 273.535 238.957 281.58 240.198 290.252C241.438 298.923 249.448 304.965 258.127 303.775Z"/><path fill="#C3C3C3" d="M151.241 8.09361C152.095 8.05142 152.949 8.0197 153.804 7.99848C162.774 7.78611 172.479 7.98434 181.511 7.98483L235.3 7.98543L265.028 7.97874C270.264 7.97717 275.539 7.88231 280.76 8.15581C283.923 8.32151 287.221 10.9726 287.653 14.1602C288.423 19.8509 288.046 26.1591 288.011 31.9465C300.368 32.076 312.736 31.7932 325.091 31.9817C329.026 32.0417 331.25 32.0445 334.102 35.0146C338.778 39.884 342.869 45.7615 347.103 51.0491C350.01 54.6792 366.458 74.3838 367.463 77.0997C368.537 80.0019 368.196 142.95 367.983 150.807C367.911 153.45 367.467 156.004 365.395 157.863C364.285 158.86 362.814 159.482 361.365 159.783C357.582 160.569 346.865 160.256 342.576 160.114C340.547 164.972 337.594 168.97 333.216 171.939C327.994 175.526 321.535 176.832 315.33 175.553C309.292 174.367 303.961 170.858 300.484 165.78C299.379 164.159 298.665 162.449 297.548 160.79C295.942 159.675 278.979 160.092 275.649 160.095L240.198 160.101C234.59 160.104 228.057 160.313 222.572 160.114C217.917 172.397 204.325 179.23 191.853 174.569C188.445 173.296 186.233 171.726 183.474 169.405C182.481 168.36 180.79 166.405 180.123 165.2C177.063 159.668 177.841 160.231 171.78 160.084C164.672 159.912 157.105 160.67 150.078 159.688C147.223 159.289 144.352 156.307 144.179 153.381C143.791 147.148 144.019 140.797 144.022 134.534L144.043 96.0051C149.364 95.9777 154.685 95.9905 160.006 96.0433L160.01 143.946C165.757 143.997 171.505 144.006 177.253 143.973L177.371 143.727C180.691 136.855 184.548 131.929 192.056 129.359C198.175 127.266 204.877 127.701 210.674 130.568C216.004 133.235 220.476 138.076 222.39 143.745C225.66 144.22 235.14 144.003 239.043 144.002L271.958 143.973C272.298 104.119 271.572 63.986 272.054 24.18C245.828 23.8621 219.129 24.1066 192.867 24.1044L172.136 24.1249C169.058 24.1442 162.934 24.3676 160.062 24.007L160.01 32.0345C154.768 32.161 149.231 32.072 143.967 32.0741C144.32 23.8454 140.861 9.89236 151.241 8.09361ZM288.009 143.946C290.978 143.963 294.313 144.054 297.254 143.977C300.612 137.034 304.253 132.128 311.836 129.434C317.856 127.306 324.473 127.644 330.245 130.374C335.169 132.731 337.904 135.69 340.815 140.161C341.42 141.383 341.997 142.436 342.394 143.744C345.279 144.09 349.026 144.032 351.964 143.979C352.071 125.644 351.634 106.36 352.059 88.1622L319.104 88.1169C316.906 88.1172 314.253 88.0384 312.099 88.1192C295.166 88.7543 295.978 85.4055 295.989 70.3618L296.025 49.7072C296.032 49.1997 296.042 48.6922 296.055 48.1847C293.723 48.1981 290.292 48.3271 288.079 47.9695C287.804 57.1604 288.087 66.7508 288.008 75.9919C287.817 98.5728 288.28 121.386 288.009 143.946ZM197.905 144.352C193.711 145.482 191.209 149.78 192.298 153.986C193.387 158.191 197.66 160.735 201.876 159.688C206.152 158.626 208.739 154.28 207.635 150.015C206.531 145.75 202.159 143.205 197.905 144.352ZM317.905 144.352C313.711 145.482 311.209 149.78 312.298 153.986C313.387 158.191 317.66 160.735 321.876 159.688C326.152 158.626 328.74 154.28 327.635 150.015C326.531 145.75 322.159 143.205 317.905 144.352ZM312.085 47.9819C311.818 55.824 312.088 64.0617 312.011 71.9453L331.993 72.0048C335.42 72.0073 339.805 72.1396 343.102 71.9141C342.668 70.9697 338.912 66.3829 337.548 64.7928C334.175 60.858 327.711 51.7243 324.063 48.5664C323.141 47.7683 314.374 48.3093 312.085 47.9819Z"/><path fill="#C3C3C3" d="M437.943 327.85C439.851 327.707 442.204 327.82 444.103 328.04C453.687 329.146 462.429 334.045 468.375 341.644C474.297 349.243 476.918 358.904 475.648 368.454C474.486 377.462 469.664 386.312 462.428 391.851C465.539 392.173 469.496 391.998 472.677 392.065C485.973 392.344 497.713 400.78 502.156 413.336C503.777 417.919 503.974 421.751 504.011 426.595L504.031 474.771L504.027 489.004C504.025 495.198 504.961 503.316 496.282 503.908C490.496 504.303 484.518 504.106 478.703 504.107L441.875 504.105L403.25 504.11C396.862 504.114 390.417 504.283 384.043 503.953C379.455 503.715 376.178 501.057 376.068 496.271C375.947 490.958 375.996 485.646 375.995 480.333L375.996 451.393L376.005 431.924C376.007 427.989 375.881 421.558 376.599 417.843C377.728 412.065 380.425 406.71 384.397 402.364C390.194 395.998 397.687 392.58 406.263 392.095C410.027 391.882 413.852 392.091 417.685 391.906C417.152 391.492 416.623 391.073 416.098 390.648C409.353 385.117 405.009 376.011 404.192 367.379C403.241 357.659 406.236 347.965 412.505 340.476C419.218 332.487 427.719 328.74 437.943 327.85ZM470.625 487.988C476.327 487.988 482.278 488.074 487.96 487.976L488.022 443.2C488.022 435.942 488.369 427.649 487.509 420.467C486.896 415.343 480.929 409.356 475.882 408.642C468.888 407.691 460.693 408.098 453.544 408.097L410.189 408.112C409.934 408.112 409.678 408.115 409.423 408.12C403.918 408.391 400.26 408.945 396.197 413.178C394.374 415.076 392.796 418.035 392.473 420.634C391.631 427.403 392.074 435.389 392.008 442.275C391.861 457.466 392.188 472.779 392.01 487.946L470.625 487.988ZM442.377 383.772C453.33 382.433 461.109 372.447 459.726 361.499C458.343 350.551 448.324 342.814 437.382 344.242C426.504 345.662 418.821 355.61 420.196 366.494C421.571 377.378 431.487 385.102 442.377 383.772Z"/><path fill="#C3C3C3" d="M63.7399 332.595C76.7562 331.509 91.0253 335.64 101.738 343.037C114.922 352.061 123.944 365.986 126.792 381.707C130.039 399.502 125.551 414.289 115.541 428.866C119.679 432.942 123.833 437.219 128.047 441.189C131.026 438.057 134.282 434.014 139.17 434.847C141.117 435.281 143.345 436.695 144.762 438.086C154.824 447.963 164.608 458.11 174.714 467.944C177.134 470.3 179.24 472.371 179.225 475.987C179.214 478.705 178.274 480.21 176.445 482.152C172.609 486.175 168.593 490.048 164.685 494.003C162.42 496.233 157.869 501.096 155.532 502.716C154.34 503.539 152.93 503.99 151.482 504.011C146.406 504.084 139.72 495.776 136.066 492.096L119.334 475.381C116.826 472.877 112.855 469.408 111.01 466.573C107.376 460.989 113.323 455.861 116.565 452.526C112.727 449.02 108.081 444.117 104.309 440.363C102.367 441.335 99.3044 443.503 97.2184 444.71C90.4252 448.632 82.9087 451.138 75.1213 452.079C59.21 453.984 43.195 449.475 30.6154 439.547C18.173 429.722 10.1349 415.364 8.26404 399.621C6.38076 383.63 10.9609 367.55 20.987 354.951C32.2703 340.973 46.1781 334.461 63.7399 332.595ZM67.8749 436.389C92.0484 436.452 111.711 416.936 111.831 392.763C111.951 368.59 92.4833 348.88 68.3104 348.702C44.0554 348.523 24.2641 368.072 24.1437 392.327C24.0232 416.583 43.6194 436.327 67.8749 436.389ZM129.351 462.55C133.138 466.774 138.214 471.388 142.209 475.54C144.057 477.461 149.626 483.12 151.51 484.511C154.026 481.961 157.534 478.621 159.885 476C157.467 473.464 139.676 455.054 137.718 454.184C135.094 456.832 132.036 460.074 129.351 462.55Z"/><path fill="#C3C3C3" d="M106.098 111.892C107.383 112.287 115.966 121.065 117.525 122.603C116.075 124.845 110.549 130.526 108.413 133.13C101.63 141.239 95.5319 149.897 90.1814 159.015C68.6935 195.68 59.9462 238.426 65.3046 280.584C66.657 291.204 68.6314 299.536 71.2878 309.79C69.0962 310.475 66.8982 311.14 64.6941 311.784C62.5538 312.362 58.4205 313.925 56.4422 313.982C55.2768 313.311 54.1813 307.749 53.8347 306.307C49.4516 288.62 47.4341 270.429 47.8349 252.212C48.6154 209.59 62.4952 168.241 87.5891 133.781C92.8981 126.473 99.5893 118.19 106.098 111.892Z"/><path fill="#C3C3C3" d="M405.524 112.512C409.275 114.597 422.625 131.992 425.438 135.961C453.857 175.957 467.174 224.734 463.021 273.622C462.42 280.728 461.45 287.798 460.115 294.804C459.409 298.506 458.44 302.201 457.809 305.883C455.676 305.574 451.248 304.353 448.987 303.794C446.584 303.182 444.473 302.64 442.036 302.159C445.666 287.841 447.576 273.141 447.728 258.371C448.346 208.16 429.16 159.725 394.326 123.556C396.331 120.919 402.898 114.915 405.524 112.512Z"/><path fill="#C3C3C3" d="M347.324 424.998L347.986 425.091C349.278 425.913 354.745 436.609 355.768 438.508C355.302 438.812 354.871 439.073 354.378 439.341C314.997 460.807 269.178 468.68 224.871 461.995C218.834 461.084 211.085 459.679 205.274 458.051C202.889 457.549 200.188 456.681 197.719 456.077C199.048 451.268 200.697 445.46 202.269 440.77C213.494 443.482 221.309 445.466 232.938 446.855C272.408 451.521 312.356 443.888 347.324 424.998Z"/><path fill="#C3C3C3" d="M136.111 72.0122C149.407 71.9462 162.703 71.9598 175.998 72.0531C176.053 77.3842 176.046 82.7157 175.978 88.0466C163.102 88.3823 148.91 88.1124 135.97 88.0797C136.112 82.8673 135.772 77.1352 136.111 72.0122Z"/><path fill="#C3C3C3" d="M120.111 40.0122C133.408 39.9558 146.706 39.9678 160.003 40.0481C160.052 45.3808 160.044 50.7138 159.98 56.0464C147.074 56.3846 132.939 56.104 119.969 56.0821C120.119 50.8589 119.772 45.1527 120.111 40.0122Z"/></svg>