<?xml version="1.0" standalone="no"?>
<!DOCTYPE svg PUBLIC "-//W3C//DTD SVG 20010904//EN"
 "http://www.w3.org/TR/2001/REC-SVG-20010904/DTD/svg10.dtd">
<svg version="1.0" xmlns="http://www.w3.org/2000/svg"
 width="512.000000pt" height="512.000000pt" viewBox="0 0 512.000000 512.000000"
 preserveAspectRatio="xMidYMid meet">
<metadata>
Created by potrace 1.16, written by Peter Selinger 2001-2019
</metadata>
<g transform="translate(0.000000,512.000000) scale(0.100000,-0.100000)"
fill="#000000" stroke="none">
<path d="M3215 5100 c-234 -50 -419 -147 -588 -310 -110 -105 -171 -186 -235
-310 -61 -117 -71 -147 -168 -495 -42 -154 -78 -282 -80 -284 -2 -2 -34 17
-71 42 -200 132 -396 186 -637 174 -204 -10 -399 -79 -559 -197 -90 -67 -108
-119 -56 -166 35 -31 78 -23 149 31 75 56 219 126 305 150 85 23 258 31 352
15 311 -50 582 -277 684 -572 91 -266 50 -557 -111 -781 -35 -49 -46 -58 -64
-52 -11 3 -64 15 -116 26 -137 30 -392 23 -531 -14 -126 -33 -245 -85 -349
-152 l-85 -54 -37 21 c-52 30 -161 130 -212 197 -194 251 -235 594 -105 879
16 36 29 76 29 89 0 32 -42 73 -75 73 -45 0 -66 -20 -101 -94 -195 -424 -62
-950 313 -1236 l62 -47 -26 -24 c-45 -41 -137 -171 -180 -254 -93 -179 -136
-356 -136 -555 1 -344 127 -640 374 -875 149 -142 323 -238 525 -291 133 -36
374 -45 509 -19 250 46 472 161 643 332 l74 74 126 3 c197 6 354 46 526 134
231 119 427 321 537 557 45 96 189 588 189 646 0 66 -74 101 -123 57 -23 -19
-38 -62 -97 -277 -74 -266 -100 -338 -157 -435 -173 -296 -470 -484 -825 -521
l-68 -7 25 44 c41 74 83 183 112 296 25 98 28 122 27 282 -1 162 -3 184 -31
290 -58 217 -163 402 -318 555 -90 90 -188 163 -276 205 l-46 23 35 51 c84
125 145 288 164 440 10 82 14 95 29 91 9 -3 364 -102 789 -220 425 -117 775
-216 777 -219 3 -3 -13 -72 -36 -153 -23 -81 -41 -160 -41 -174 0 -58 95 -94
134 -50 19 21 456 1573 477 1694 17 102 15 304 -5 410 -80 419 -377 769 -774
911 -189 67 -454 86 -647 46z m456 -160 c439 -93 772 -466 818 -917 18 -176 7
-232 -170 -871 -89 -317 -162 -577 -162 -578 -2 -1 -1522 420 -1608 446 -36
10 -37 12 -48 76 -23 130 -98 299 -182 411 -21 29 -39 57 -39 64 0 21 180 658
204 722 50 133 115 236 215 341 259 270 613 382 972 306z m-1713 -2721 c162
-25 344 -106 481 -215 243 -192 391 -504 391 -824 0 -43 -3 -81 -7 -83 -5 -2
-201 73 -438 167 -236 94 -652 259 -922 366 -271 107 -493 199 -493 203 0 14
121 136 180 182 234 179 515 250 808 204z m-573 -732 c270 -107 696 -276 948
-377 l459 -182 -7 -27 c-11 -44 -65 -175 -78 -188 -9 -9 -227 74 -966 367
-524 208 -955 381 -957 383 -5 5 27 98 60 171 16 36 31 56 38 53 7 -3 234 -93
503 -200z m-75 -410 c256 -101 650 -258 875 -347 226 -89 414 -166 418 -170
13 -11 -140 -159 -226 -218 -202 -139 -433 -200 -682 -180 -242 20 -451 116
-631 293 -146 143 -225 274 -280 463 -26 90 -43 246 -36 329 l4 52 46 -19 c26
-10 256 -101 512 -203z"/>
<path d="M1344 3426 c-22 -18 -28 -32 -27 -62 1 -46 30 -74 78 -74 76 0 109
87 51 136 -35 30 -67 30 -102 0z"/>
<path d="M1693 3058 c-47 -23 -53 -103 -10 -133 31 -21 83 -19 107 5 31 31 27
93 -6 119 -29 23 -57 26 -91 9z"/>
<path d="M1065 2935 c-73 -72 28 -178 109 -114 55 43 18 139 -54 139 -19 0
-40 -9 -55 -25z"/>
<path d="M1469 2641 c-18 -14 -24 -29 -24 -61 0 -32 6 -47 24 -61 53 -43 131
-7 131 61 0 68 -78 104 -131 61z"/>
</g>
</svg>
