<?xml version="1.0" encoding="UTF-8"?>
<!DOCTYPE svg PUBLIC "-//W3C//DTD SVG 1.1//EN" "http://www.w3.org/Graphics/SVG/1.1/DTD/svg11.dtd">
<!-- Creator: CorelDRAW X5 -->
<svg xmlns="http://www.w3.org/2000/svg" xml:space="preserve" width="135.467mm" height="16.9332mm" style="shape-rendering:geometricPrecision; text-rendering:geometricPrecision; image-rendering:optimizeQuality; fill-rule:evenodd; clip-rule:evenodd"
viewBox="0 0 13547 1693"
 xmlns:xlink="http://www.w3.org/1999/xlink"
 xmlns:svg="http://www.w3.org/2000/svg">
 <defs>
  <style type="text/css">
   <![CDATA[
    .fil0 {fill:#00AAEF;fill-rule:nonzero}
    .fil18 {fill:#01679C;fill-rule:nonzero}
    .fil16 {fill:#164967;fill-rule:nonzero}
    .fil10 {fill:#1693D4;fill-rule:nonzero}
    .fil12 {fill:#28BCE2;fill-rule:nonzero}
    .fil6 {fill:#3F7E44;fill-rule:nonzero}
    .fil1 {fill:#4689C6;fill-rule:nonzero}
    .fil5 {fill:#499C44;fill-rule:nonzero}
    .fil2 {fill:#5BB844;fill-rule:nonzero}
    .fil11 {fill:#A11844;fill-rule:nonzero}
    .fil4 {fill:#C11D2D;fill-rule:nonzero}
    .fil17 {fill:#C6992D;fill-rule:nonzero}
    .fil15 {fill:#DD1667;fill-rule:nonzero}
    .fil3 {fill:#E2B82F;fill-rule:nonzero}
    .fil14 {fill:#E6233A;fill-rule:nonzero}
    .fil8 {fill:#EF3F28;fill-rule:nonzero}
    .fil13 {fill:#EF6728;fill-rule:nonzero}
    .fil9 {fill:#F99C23;fill-rule:nonzero}
    .fil7 {fill:#F9C116;fill-rule:nonzero}
   ]]>
  </style>
 </defs>
 <g id="Layer_x0020_1">
  <metadata id="CorelCorpID_0Corel-Layer"/>
 </g>
 <g id="Layer_x0020_1_0">
  <metadata id="CorelCorpID_1Corel-Layer"/>
  <g id="_348095688">
   <g>
    <path class="fil0" d="M194 1120l0 432 79 0c109,0 182,-76 182,-213l0 -5c0,-137 -74,-214 -182,-214l-79 0zm-143 -129l0 0 223 0c200,0 329,138 329,340l0 9c0,202 -129,341 -329,341l-223 0 0 -691z"/>
    <polygon class="fil0" points="679,991 1123,991 1123,1121 821,1121 821,1269 1087,1269 1087,1398 821,1398 821,1553 1128,1553 1128,1682 679,1682 "/>
    <polygon class="fil0" points="1151,991 1306,991 1452,1467 1598,991 1749,991 1516,1685 1384,1685 "/>
    <polygon class="fil0" points="1798,991 2243,991 2243,1121 1940,1121 1940,1269 2206,1269 2206,1398 1940,1398 1940,1553 2247,1553 2247,1682 1798,1682 "/>
    <polygon class="fil0" points="2323,991 2466,991 2466,1550 2745,1550 2745,1682 2323,1682 "/>
    <path class="fil0" d="M3220 1340l0 -7c0,-136 -69,-222 -165,-222 -96,0 -165,85 -165,221l0 7c0,136 70,222 166,222 95,0 163,-85 163,-221zm-476 3l0 0 0 -12c0,-207 130,-352 313,-352 183,0 311,144 311,350l0 12c0,206 -130,352 -313,352 -183,0 -311,-144 -311,-350z"/>
    <path class="fil0" d="M3668 1343c74,0 115,-47 115,-111l0 -1c0,-72 -41,-112 -117,-112l-78 0 0 223 80 0zm-223 -352l0 0 230 0c155,0 252,90 252,237l0 2c0,159 -113,239 -258,242l-81 0 0 210 -143 0 0 -690z"/>
    <polygon class="fil0" points="3985,991 4135,991 4289,1271 4440,991 4591,991 4591,1682 4451,1682 4451,1241 4289,1526 4286,1526 4124,1243 4124,1682 3985,1682 "/>
    <polygon class="fil0" points="4693,991 5138,991 5138,1121 4835,1121 4835,1269 5101,1269 5101,1398 4835,1398 4835,1553 5142,1553 5142,1682 4693,1682 "/>
    <polygon class="fil0" points="5218,991 5349,991 5613,1394 5613,991 5753,991 5753,1682 5631,1682 5358,1264 5358,1682 5218,1682 "/>
    <polygon class="fil0" points="5987,1124 5813,1124 5813,991 6303,991 6303,1124 6129,1124 6129,1682 5987,1682 "/>
    <path class="fil0" d="M0 666l93 -116c51,44 112,85 188,85 61,0 97,-30 97,-75l0 -1c0,-38 -22,-62 -130,-103 -134,-52 -217,-103 -217,-233l0 -2c0,-132 102,-222 248,-222 89,0 176,30 245,93l-88 119c-48,-39 -103,-70 -161,-70 -54,0 -87,27 -87,66l0 1c0,43 26,64 144,112 132,52 203,108 203,226l0 2c0,140 -107,227 -254,227 -96,0 -197,-34 -280,-112l0 0z"/>
    <path class="fil0" d="M600 473l0 -463 157 0 0 464c0,107 51,160 132,160 81,0 132,-52 132,-157l0 -467 156 0 0 459c0,209 -115,309 -290,309 -174,0 -287,-102 -287,-306z"/>
    <path class="fil0" d="M1224 666l93 -116c51,44 112,85 188,85 60,0 97,-30 97,-75l0 -1c0,-38 -22,-62 -130,-103 -134,-52 -217,-103 -217,-233l0 -2c0,-132 102,-222 248,-222 89,0 175,30 244,93l-88 119c-47,-39 -103,-70 -161,-70 -54,0 -88,27 -88,66l0 1c0,43 26,64 144,112 132,52 204,108 204,226l0 2c0,140 -107,227 -254,227 -96,0 -197,-34 -280,-112l0 0z"/>
    <polygon class="fil0" points="1962,155 1772,155 1772,10 2308,10 2308,155 2118,155 2118,767 1962,767 "/>
    <path class="fil0" d="M2665 464l-82 -247 -84 247 166 0zm-155 -458l0 0 150 0 271 761 -162 0 -56 -164 -261 0 -55 164 -158 0 271 -761z"/>
    <polygon class="fil0" points="2991,10 3148,10 3148,767 2991,767 "/>
    <polygon class="fil0" points="3265,10 3409,10 3698,451 3698,10 3852,10 3852,767 3718,767 3418,310 3418,767 3265,767 "/>
    <path class="fil0" d="M4332 464l-82 -247 -84 247 166 0zm-155 -458l0 0 150 0 271 761 -162 0 -56 -164 -261 0 -55 164 -158 0 271 -761z"/>
    <path class="fil0" d="M4942 451l-137 0 0 177 140 0c71,0 115,-30 115,-88l0 -1c0,-54 -40,-87 -118,-87l0 0zm86 -219l0 0c0,-55 -39,-84 -106,-84l-117 0 0 171 109 0c69,0 114,-28 114,-86l0 -1zm-375 -223l0 0 281 0c84,0 155,23 198,66 34,35 51,75 51,129l0 3c0,89 -49,136 -103,166 81,31 135,81 135,180l0 6c0,136 -109,207 -274,207l-289 0 0 -757z"/>
    <polygon class="fil0" points="5288,10 5445,10 5445,623 5751,623 5751,767 5288,767 "/>
    <polygon class="fil0" points="5816,10 6304,10 6304,152 5972,152 5972,315 6264,315 6264,457 5972,457 5972,626 6308,626 6308,767 5816,767 "/>
   </g>
   <g>
    <path class="fil1" d="M7385 779l750 0c-13,602 -345,905 -793,905 -482,0 -790,-406 -790,-842 0,-436 309,-842 790,-842 534,0 681,333 741,506l-339 21c-58,-143 -175,-237 -402,-237 -255,0 -453,207 -453,553 0,292 184,553 475,553 261,0 382,-186 410,-339l-389 0 0 -277z"/>
    <polygon class="fil1" points="11337,34 11660,34 11660,1353 12282,1353 12282,1654 11337,1654 "/>
    <path class="fil1" d="M13189 461c0,-112 -107,-181 -237,-181 -162,0 -259,71 -259,179 0,112 108,166 187,192l297 95c216,69 368,194 368,444 0,198 -142,495 -590,495 -562,0 -614,-364 -614,-509l323 -6c0,172 136,239 293,239 110,0 265,-54 265,-179 0,-86 -37,-131 -196,-189l-353 -127c-178,-64 -303,-222 -303,-405 0,-206 142,-504 562,-504 500,0 579,332 579,450l-323 6z"/>
    <path class="fil2" d="M8651 643c20,-34 44,-64 71,-92l-235 -258c-59,56 -110,122 -150,194l313 155z"/>
    <path class="fil3" d="M9227 461c36,16 69,37 98,62l236 -257c-62,-54 -132,-98 -209,-130l-125 326z"/>
    <path class="fil4" d="M9766 538l-312 156c15,35 26,71 31,110l347 -33c-11,-82 -33,-161 -67,-233l0 0z"/>
    <path class="fil5" d="M9432 649l312 -156c-39,-72 -88,-137 -146,-194l-236 257c27,28 50,59 69,93z"/>
    <path class="fil6" d="M8589 871c0,-7 0,-14 0,-21l-347 -31c-1,17 -2,35 -2,52 0,67 8,131 23,193l336 -96c-7,-31 -11,-64 -11,-97l0 0z"/>
    <path class="fil7" d="M9388 1156c-24,30 -53,57 -85,80l183 297c68,-46 129,-102 180,-167l-278 -210z"/>
    <path class="fil8" d="M9490 871c0,32 -4,65 -10,96l335 96c15,-62 23,-126 23,-192 0,-16 0,-33 -2,-49l-347 33c0,5 0,11 0,16l0 0z"/>
    <path class="fil9" d="M8697 1163l-278 211c52,63 113,119 181,164l183 -296c-32,-22 -61,-49 -87,-79l0 0z"/>
    <path class="fil10" d="M8595 800c6,-39 18,-77 33,-112l-312 -156c-35,73 -59,153 -69,236l348 31z"/>
    <path class="fil11" d="M9444 1560l-183 -297c-34,19 -69,34 -107,44l64 343c80,-19 156,-49 226,-90l0 0z"/>
    <path class="fil12" d="M9466 1015c-12,36 -28,69 -48,101l278 210c45,-65 81,-137 105,-214l-335 -96z"/>
    <path class="fil13" d="M9104 1317c-21,3 -43,5 -65,5 -18,0 -35,-1 -53,-3l-64 343c38,5 77,8 117,8 44,0 87,-4 129,-11l-64 -343z"/>
    <path class="fil14" d="M9068 421c39,3 76,10 112,22l125 -326c-75,-27 -154,-42 -237,-45l0 349z"/>
    <path class="fil15" d="M8937 1310c-39,-9 -76,-23 -111,-42l-184 297c71,40 148,70 230,88l64 -343z"/>
    <path class="fil16" d="M8904 441c37,-12 75,-19 114,-20l0 -349c-84,2 -164,18 -240,44l126 326z"/>
    <path class="fil17" d="M8666 1123c-22,-32 -40,-68 -53,-106l-335 96c26,80 63,154 111,221l278 -211z"/>
    <path class="fil18" d="M8760 517c30,-23 62,-43 97,-59l-126 -325c-75,31 -144,75 -206,126l235 258z"/>
    <path class="fil1" d="M10510 407l-4 0 -208 637 421 0 -210 -637zm297 904l0 0 -600 0 -107 343 -354 0 598 -1642 345 0 590 1642 -361 0 -111 -343z"/>
   </g>
  </g>
 </g>
</svg>
